<?xml version="1.0" encoding="UTF-8"?><svg id="Layer_1" xmlns="http://www.w3.org/2000/svg" viewBox="0 0 560 582.9"><defs><style>.cls-1{fill:#ff4e44;}.cls-1,.cls-2{stroke:#ff4e44;stroke-miterlimit:10;}.cls-2{fill:none;stroke-linecap:round;stroke-width:20px;}</style></defs><path class="cls-2" d="M412.2,366.9c48.3-73,28.4-171.4-44.6-219.7s-171.4-28.4-219.7,44.6c-35.3,53.3-35.1,122.5,.3,175.6"/><path class="cls-2" d="M424.5,508.1c75.4-47.9,125.5-132.1,125.5-228.1,0-149.1-120.9-270-270-270S10,130.9,10,280c-.1,92.1,46.9,177.9,124.6,227.5"/><path class="cls-2" d="M412.2,446c51.1-40.4,80.9-101.9,80.8-167,0-117.6-95.4-213-213-213S67,161.4,67,279c-.1,65.3,29.9,127,81.2,167.3"/><path class="cls-1" d="M395,249.2c0-17.6-14.3-31.9-31.9-31.9H196.9c-17.6,0-31.9,14.3-31.9,31.9v123.2h230v-123.2Zm-123.6,91.6c0,8.6-7,15.6-15.6,15.6h-53.8c-8.6,0-15.6-7-15.6-15.6v-88.7c0-8.6,7-15.6,15.6-15.6h53.7c8.6,0,15.6,7,15.6,15.6l.1,88.7h0Zm103,0c0,8.6-7,15.6-15.6,15.6h-53.8c-8.6,0-15.6-7-15.6-15.6v-88.7c0-8.6,7-15.6,15.6-15.6h53.7c8.6,0,15.6,7,15.6,15.6l.1,88.7h0Z"/><rect class="cls-1" x="165" y="378.4" width="230" height="19.8"/><path class="cls-1" d="M370.9,466.4h-.5c14.4-3.4,24.7-16.3,24.7-31.1v-31.1H165.1v31.1c0,14.8,10.2,27.7,24.7,31.1h-.8l-90,116h45l13-20h246l12,20h46l-90.1-116Zm-34.8-46.9c6.9,0,12.5,5.6,12.5,12.5s-5.6,12.5-12.5,12.5-12.5-5.6-12.5-12.5,5.6-12.5,12.5-12.5h0Zm-113,0c6.9,0,12.5,5.6,12.5,12.5s-5.6,12.5-12.5,12.5-12.5-5.6-12.5-12.5,5.6-12.5,12.5-12.5h0Zm-10.6,47.8h133l13.5,21.2H201l11.5-21.2Zm-39.6,68.1l11-19h191l12,19H172.9Z"/></svg>