<?xml version="1.0" encoding="utf-8"?>
<svg version="1.1" id="Layer_1" xmlns="http://www.w3.org/2000/svg" xmlns:xlink="http://www.w3.org/1999/xlink" x="0px" y="0px"
	 viewBox="0 0 3149.4 600" style="enable-background:new 0 0 3149.4 600;" xml:space="preserve">
<style type="text/css">
	.st0{fill:none;stroke:#FF4E44;stroke-width:20;stroke-linecap:round;stroke-miterlimit:10;}
	.st1{fill:#FF4E44;stroke:#FF4E44;stroke-miterlimit:10;}
</style>
<g>
	<path class="st0" d="M412.2,370.7c48.3-73,28.4-171.4-44.6-219.7s-171.4-28.4-219.7,44.6c-35.3,53.3-35.1,122.5,0.3,175.6"/>
	<path class="st0" d="M424.5,511.9C499.9,464,550,379.8,550,283.8c0-149.1-120.9-270-270-270S10,134.7,10,283.8
		c-0.1,92.1,46.9,177.9,124.6,227.5"/>
	<path class="st0" d="M412.2,449.8c51.1-40.4,80.9-101.9,80.8-167c0-117.6-95.4-213-213-213s-213,95.4-213,213
		c-0.1,65.3,29.9,127,81.2,167.3"/>
	<path class="st1" d="M395,253c0-17.6-14.3-31.9-31.9-31.9H196.9c-17.6,0-31.9,14.3-31.9,31.9v123.2h230V253z M271.4,344.6
		c0,8.6-7,15.6-15.6,15.6H202c-8.6,0-15.6-7-15.6-15.6v-88.7c0-8.6,7-15.6,15.6-15.6h53.7c8.6,0,15.6,7,15.6,15.6L271.4,344.6
		L271.4,344.6z M374.4,344.6c0,8.6-7,15.6-15.6,15.6H305c-8.6,0-15.6-7-15.6-15.6v-88.7c0-8.6,7-15.6,15.6-15.6h53.7
		c8.6,0,15.6,7,15.6,15.6L374.4,344.6L374.4,344.6z"/>
	<rect x="165" y="382.2" class="st1" width="230" height="19.8"/>
	<path class="st1" d="M370.9,470.2h-0.5c14.4-3.4,24.7-16.3,24.7-31.1V408h-230v31.1c0,14.8,10.2,27.7,24.7,31.1H189l-90,116h45
		l13-20h246l12,20h46L370.9,470.2z M336.1,423.3c6.9,0,12.5,5.6,12.5,12.5s-5.6,12.5-12.5,12.5c-6.9,0-12.5-5.6-12.5-12.5
		C323.6,428.9,329.2,423.3,336.1,423.3L336.1,423.3z M223.1,423.3c6.9,0,12.5,5.6,12.5,12.5s-5.6,12.5-12.5,12.5
		c-6.9,0-12.5-5.6-12.5-12.5C210.6,428.9,216.2,423.3,223.1,423.3L223.1,423.3z M212.5,471.1h133l13.5,21.2H201L212.5,471.1z
		 M172.9,539.2l11-19h191l12,19H172.9z"/>
</g>
<path class="st1" d="M764.9,219.2v161.7H733v-65.6h-72.2v65.6H629V219.2h31.8v65.2H733v-65.2H764.9z"/>
<path class="st1" d="M788.4,384L861.2,216h1.8L935.9,384H899l-46.5-118.1l23-15.8L819.8,384H788.4z M838.2,325.4h48.5l11.2,26.8
	h-69.5L838.2,325.4z"/>
<path class="st1" d="M1008.3,219.3c9.1-0.1,18.3,1.2,27,3.8c7.3,2.2,14.1,6,19.9,11c5.3,4.7,9.5,10.6,12.2,17.1
	c2.9,7.2,4.3,14.8,4.2,22.5c0,6.7-1,13.3-3,19.8c-2,6.6-5.3,12.7-9.7,18c-4.8,5.7-10.9,10.1-17.7,13.1c-8.6,3.5-17.9,5.2-27.2,4.9
	h-22.8v51.2h-31.9V219.3H1008.3z M1013.8,298.8c4.2,0.1,8.3-0.7,12.1-2.4c3-1.4,5.6-3.5,7.6-6.1c1.8-2.3,3.1-5,4-7.8
	c0.8-2.5,1.2-5,1.2-7.6c-0.1-2.2-0.3-4.5-0.8-6.7c-0.6-2.9-1.7-5.7-3.2-8.2c-1.8-2.9-4.3-5.4-7.3-7c-4.1-2.1-8.7-3.1-13.3-2.9h-22.8
	v48.7H1013.8z M1043.6,318.5l40,62.2h-37.1l-40.8-61.5L1043.6,318.5z"/>
<path class="st1" d="M1110,219.2h31.8v131h75.9v30.7H1110V219.2z"/>
<path class="st1" d="M1250.6,219.2h110.2V250h-78.4v34.5h69.5v30.7h-69.5V350h81.4v30.7h-113.4L1250.6,219.2z"/>
<path class="st1" d="M1396.9,384.2V215.9h0.2l89.8,127.3l-13.6-3.1l89.5-124.4h0.4V384h-31.8v-96.2l2,16.5l-54.6,77.7h-0.4
	l-56.2-77.7l5.5-15.1v95.1L1396.9,384.2z"/>
<path class="st1" d="M1676.3,219.2h31.8v131h75.9v30.7h-107.8V219.2z"/>
<path class="st1" d="M1817,219.2h31.8v161.7H1817V219.2z"/>
<path class="st1" d="M2035.2,387.2l-122.5-110.6l9.4,5.3l0.7,98.8h-32.3V212.8h1.3l119.9,110.2l-7.1-3.1L2004,219h32.1v168.3H2035.2
	z"/>
<path class="st1" d="M2077.8,219.2h110.2V250h-78.4v34.5h69.5v30.7h-69.5V350h81.4v30.7h-113.4L2077.8,219.2z"/>
<path class="st1" d="M2431.2,219.2v161.7h-31.8v-65.6h-72.2v65.6h-31.9V219.2h31.9v65.2h72.2v-65.2H2431.2z"/>
<path class="st1" d="M2501.4,320.4c0.1,5.2,1.7,10.3,4.6,14.6c3.1,4.7,7.3,8.6,12.2,11.4c5,2.9,10.8,4.4,16.6,4.4
	c12,0.2,23.2-5.7,29.7-15.8c2.9-4.3,4.5-9.4,4.5-14.6v-102h31.4v102.4c0.2,11.1-2.8,22.1-8.8,31.5c-5.9,9.1-14,16.6-23.7,21.5
	c-10.2,5.3-21.6,7.9-33.1,7.8c-11.4,0.2-22.8-2.5-32.9-7.8c-9.6-5-17.8-12.4-23.6-21.5c-5.9-9.4-9-20.4-8.8-31.5V218.4h31.8
	L2501.4,320.4z"/>
<path class="st1" d="M2725.1,257.9c-6-3.3-12.3-6.1-18.8-8.3c-5.7-2.1-11.8-3.2-17.9-3.3c-5.7-0.3-11.4,1.1-16.2,4.2
	c-4,2.9-6.2,7.6-5.9,12.5c0,3.9,1.7,7.6,4.5,10.2c3.4,3.3,7.3,6,11.6,8c4.8,2.4,9.8,4.5,14.8,6.4c4.8,1.8,9.4,3.9,13.9,6.3
	c4.6,2.4,8.7,5.4,12.4,9c3.8,3.8,6.8,8.4,8.8,13.4c2.4,6.3,3.5,12.9,3.3,19.6c0,8.1-2.2,16-6.4,22.8c-4.5,7.3-11,13.2-18.7,17
	c-9.4,4.6-19.8,6.8-30.3,6.5c-19.8,0-39.1-6.1-55.3-17.3L2639,340c3.9,2.8,8,5.3,12.4,7.3c4.3,2.1,8.9,3.7,13.5,4.9
	c4.1,1.1,8.3,1.7,12.5,1.8c3.9,0,7.8-0.6,11.5-1.6c3.7-1,7-2.9,9.7-5.6c2.6-3,3.9-7,3.7-11c0-3.2-1.1-6.3-3.2-8.8
	c-2.4-2.9-5.3-5.4-8.6-7.3c-3.7-2.3-7.7-4.2-11.7-5.7c-4.9-1.9-10-4.1-15.4-6.6c-5.2-2.5-10.1-5.5-14.6-9.1
	c-10.2-7.8-16-20.1-15.5-32.9c-0.2-8.5,2-17,6.3-24.4c4.3-7,10.4-12.6,17.7-16.4c8.2-4.2,17.2-6.5,26.3-6.7
	c10.8-0.3,21.5,1.2,31.7,4.6c7.7,2.8,15.1,6.5,21.9,11L2725.1,257.9z"/>
<path class="st1" d="M2755.8,219.2h108.9v30.7h-39.3v131h-31.8V250h-37.8V219.2z"/>
<path class="st1" d="M2895.4,219.2h31.9v131h76v30.7h-107.9V219.2z"/>
<path class="st1" d="M3036.1,219.2h110.2V250H3068v34.5h69.5v30.7H3068V350h81.4v30.7H3036L3036.1,219.2z"/>
</svg>
