<?xml version="1.0" standalone="no"?>
<!DOCTYPE svg PUBLIC "-//W3C//DTD SVG 20010904//EN"
 "http://www.w3.org/TR/2001/REC-SVG-20010904/DTD/svg10.dtd">
<svg version="1.0" xmlns="http://www.w3.org/2000/svg"
 width="583.000000pt" height="583.000000pt" viewBox="0 0 583.000000 583.000000"
 preserveAspectRatio="xMidYMid meet">
<metadata>
Created by potrace 1.14, written by Peter Selinger 2001-2017
</metadata>
<g transform="translate(0.000000,583.000000) scale(0.100000,-0.100000)"
fill="#000000" stroke="none">
<path d="M2709 5826 c-2 -2 -35 -7 -74 -10 -38 -3 -83 -8 -100 -11 -44 -7 -85
-14 -129 -21 -51 -8 -74 -12 -94 -18 -9 -3 -28 -7 -42 -10 -14 -2 -50 -11 -81
-20 -31 -9 -65 -18 -75 -20 -30 -7 -191 -65 -284 -103 -326 -134 -659 -358
-900 -605 -86 -88 -145 -153 -185 -203 -22 -27 -44 -55 -50 -62 -17 -21 -29
-36 -64 -88 -19 -28 -37 -52 -40 -55 -4 -3 -11 -14 -18 -25 -7 -11 -36 -60
-66 -110 -150 -248 -294 -611 -332 -835 -3 -19 -10 -51 -15 -70 -10 -41 -27
-157 -37 -255 -10 -98 -9 -476 1 -560 5 -38 10 -81 11 -95 3 -26 13 -87 21
-124 2 -11 7 -34 10 -51 42 -239 184 -619 310 -832 205 -345 422 -595 710
-818 55 -42 107 -83 117 -91 9 -8 20 -14 23 -14 3 0 20 -11 39 -25 64 -49 118
-51 166 -6 24 22 29 78 11 113 -7 13 -45 45 -85 72 -489 333 -843 804 -1025
1366 -20 60 -65 241 -76 300 -2 14 -9 52 -14 85 -21 120 -26 184 -26 395 1
194 6 303 19 371 3 13 8 44 11 69 11 80 53 257 79 335 10 28 18 55 19 60 8 46
106 273 164 380 24 44 46 88 49 98 3 9 9 17 14 17 5 0 9 5 9 10 0 16 122 196
197 290 89 113 297 321 403 404 47 37 92 73 100 79 26 21 182 122 234 152 286
163 648 286 942 320 33 4 70 9 84 12 59 12 450 10 550 -3 153 -19 167 -21 250
-38 79 -17 93 -20 235 -62 252 -74 546 -221 765 -382 41 -31 80 -61 87 -66 6
-6 38 -32 70 -58 61 -50 247 -237 298 -300 17 -21 45 -54 62 -75 18 -21 33
-41 33 -45 0 -4 6 -13 13 -20 69 -73 206 -309 295 -508 53 -120 132 -362 148
-459 3 -14 7 -33 9 -41 6 -20 33 -181 33 -200 1 -8 4 -37 8 -65 18 -119 8
-552 -16 -660 -5 -22 -11 -56 -14 -75 -17 -116 -77 -331 -128 -460 -56 -143
-172 -380 -190 -388 -5 -2 -8 -8 -8 -13 0 -4 -27 -49 -60 -99 -186 -285 -449
-546 -761 -758 -75 -50 -85 -118 -26 -168 26 -22 38 -25 73 -21 24 2 55 14 71
26 15 12 82 62 148 110 382 282 669 639 878 1091 25 52 44 99 45 110 1 3 14
37 30 75 16 39 29 73 30 78 1 4 13 45 27 90 14 46 35 126 46 178 20 90 25 118
33 184 2 17 7 44 10 60 29 148 28 619 -1 760 -4 17 -6 33 -5 37 4 14 -49 253
-79 357 -45 156 -93 280 -174 446 -77 159 -107 211 -194 340 -55 81 -179 243
-216 281 -11 12 -54 57 -96 101 -94 99 -219 210 -324 289 -94 71 -251 174
-264 174 -5 0 -11 3 -13 8 -6 13 -239 129 -353 175 -116 47 -282 103 -327 111
-14 2 -35 9 -46 15 -11 6 -21 8 -24 6 -3 -3 -26 1 -52 9 -25 8 -49 14 -51 14
-3 0 -22 3 -43 6 -20 4 -50 8 -67 10 -103 14 -133 18 -155 23 -29 6 -486 14
-491 9z"/>
<path d="M2738 5265 c-1 -2 -37 -6 -78 -10 -41 -4 -97 -11 -125 -17 -27 -5
-61 -11 -75 -14 -14 -3 -34 -6 -45 -9 -11 -2 -20 -4 -20 -5 0 -1 -11 -3 -24
-6 -35 -6 -190 -54 -226 -69 -16 -7 -61 -25 -100 -41 -449 -181 -871 -566
-1101 -1004 -81 -154 -176 -394 -191 -485 -3 -16 -9 -38 -14 -47 -5 -10 -8
-18 -5 -18 3 0 0 -15 -5 -32 -5 -18 -12 -53 -15 -78 -3 -25 -8 -53 -9 -62 -31
-161 -25 -553 10 -728 3 -14 7 -37 10 -51 3 -14 16 -70 30 -123 106 -408 357
-817 666 -1085 136 -118 145 -123 196 -109 43 11 73 52 73 97 -1 43 -6 50 -90
121 -303 255 -531 607 -640 988 -17 59 -32 118 -35 132 -15 79 -26 144 -32
191 -10 75 -10 390 0 474 17 153 77 387 134 526 60 145 213 409 280 485 10 10
35 40 56 66 76 95 221 231 337 317 30 22 60 45 67 51 7 5 14 10 17 10 3 0 25
14 50 31 90 60 362 189 429 203 6 2 19 5 27 9 73 27 208 58 315 73 22 3 65 9
95 14 58 8 417 6 460 -4 14 -2 70 -12 124 -21 54 -10 116 -23 138 -31 21 -7
38 -12 38 -10 0 2 37 -10 83 -26 45 -16 87 -30 92 -32 16 -5 56 -22 120 -52
33 -15 63 -28 66 -28 19 -3 231 -135 302 -189 333 -251 587 -603 713 -987 25
-75 49 -164 58 -210 2 -14 7 -36 10 -50 22 -97 31 -210 30 -385 0 -297 -26
-436 -140 -755 -3 -8 -5 -16 -5 -17 0 -2 -26 -57 -59 -122 -104 -206 -229
-381 -385 -536 -54 -55 -190 -175 -202 -180 -1 -1 -5 -20 -8 -43 -4 -36 -1
-46 23 -73 15 -16 34 -31 42 -32 8 -2 20 -5 25 -9 15 -9 58 12 112 57 52 43
233 222 273 270 57 69 98 123 135 180 22 33 43 61 48 63 4 2 7 10 7 18 0 8 3
14 8 14 4 0 12 10 18 23 6 12 36 69 66 127 125 238 202 494 235 780 10 78 9
403 0 480 -21 181 -49 306 -103 470 -47 140 -161 386 -200 431 -8 8 -14 19
-14 23 0 7 -99 158 -110 166 -3 3 -19 23 -36 45 -44 60 -80 101 -174 195 -159
159 -260 237 -475 367 -28 17 -220 111 -253 124 -131 52 -285 101 -362 115
-14 2 -38 7 -55 11 -49 11 -58 12 -105 18 -25 4 -61 8 -80 11 -40 6 -417 14
-422 9z"/>
<path d="M2739 4715 c-2 -2 -26 -6 -54 -9 -55 -7 -90 -14 -90 -16 0 -1 -9 -3
-20 -4 -80 -10 -233 -58 -340 -107 -27 -12 -52 -23 -55 -24 -51 -17 -213 -118
-305 -190 -255 -198 -455 -480 -558 -785 -31 -90 -63 -216 -72 -285 -3 -27 -9
-66 -12 -85 -7 -46 -7 -281 1 -345 10 -87 17 -128 33 -195 8 -36 16 -72 18
-80 34 -153 201 -491 258 -522 21 -11 66 -13 97 -3 22 7 50 58 50 92 0 15 -11
46 -24 68 -137 227 -211 437 -232 660 -11 107 -5 319 11 395 3 14 7 34 9 45 2
11 9 40 16 65 7 25 14 53 15 62 6 28 51 150 80 213 32 69 115 208 127 213 4 2
8 8 8 14 0 32 205 246 315 329 130 98 355 213 459 234 10 3 33 9 50 14 158 51
449 64 640 30 201 -36 410 -120 574 -231 81 -55 100 -70 176 -138 46 -41 66
-63 134 -139 86 -96 231 -346 257 -441 1 -3 11 -35 23 -72 127 -397 72 -850
-147 -1208 -58 -96 -61 -138 -13 -181 52 -46 112 -35 155 30 28 41 97 160 97
166 0 3 11 28 25 57 26 57 65 154 71 178 2 8 12 49 24 90 78 287 74 597 -12
895 -90 316 -283 612 -533 820 -33 28 -62 52 -65 56 -3 3 -22 15 -43 28 -21
13 -43 28 -50 34 -38 36 -281 154 -392 191 -80 27 -151 46 -192 51 -11 2 -31
6 -43 10 -13 4 -37 9 -54 12 -39 5 -413 13 -417 8z"/>
<path d="M2114 3660 c-112 -5 -125 -7 -185 -38 -73 -38 -124 -97 -155 -177
-18 -47 -19 -87 -19 -695 l0 -645 1149 -3 c700 -1 1152 2 1156 7 3 5 5 294 5
643 -1 587 -2 637 -19 691 -32 98 -120 179 -225 207 -46 12 -1457 20 -1707 10z
m628 -222 c24 -14 45 -37 57 -62 19 -39 20 -65 18 -521 -2 -453 -3 -482 -21
-512 -11 -17 -35 -40 -55 -51 -34 -19 -55 -20 -339 -21 -282 -1 -306 0 -340
19 -20 10 -46 32 -57 47 -19 27 -20 46 -23 516 -3 442 -1 491 14 523 10 20 28
41 41 47 12 5 23 14 23 18 0 14 45 17 345 17 287 1 301 0 337 -20z m1024 1
c31 -15 48 -32 63 -62 18 -40 19 -63 18 -522 -2 -453 -3 -482 -21 -512 -11
-17 -35 -40 -55 -51 -34 -19 -54 -20 -340 -21 -320 0 -334 2 -381 48 -39 38
-41 60 -38 562 l3 485 23 29 c47 61 66 64 391 65 277 0 297 -1 337 -21z"/>
<path d="M1755 1948 l0 -103 1155 0 1155 0 0 103 0 102 -1155 0 -1155 0 0
-102z"/>
<path d="M1767 1790 c-20 -8 -14 -362 7 -418 31 -84 90 -150 169 -187 l47 -22
-59 -79 c-33 -44 -66 -86 -74 -94 -7 -8 -27 -33 -43 -55 -16 -22 -34 -46 -41
-55 -7 -8 -73 -94 -148 -190 -75 -96 -141 -182 -148 -190 -7 -9 -33 -42 -57
-75 -25 -33 -47 -62 -51 -65 -3 -3 -67 -85 -142 -182 l-137 -178 233 0 232 1
64 99 63 100 1228 0 1228 0 43 -72 c24 -40 50 -85 58 -101 l13 -27 240 0 240
0 -34 43 c-18 23 -59 76 -92 117 -78 101 -89 115 -206 265 -55 72 -107 138
-115 148 -8 9 -15 22 -15 27 0 6 -4 10 -8 10 -5 0 -23 20 -41 45 -17 24 -37
50 -44 57 -7 7 -31 38 -53 68 -45 60 -133 172 -232 299 l-62 80 51 26 c89 46
162 135 175 218 8 45 12 375 5 384 -6 9 -2274 11 -2294 3z m660 -204 c37 -40
43 -84 19 -131 -61 -117 -238 -60 -221 71 5 39 36 81 70 94 11 4 38 7 59 5 31
-2 47 -10 73 -39z m1089 34 c35 -13 74 -66 74 -103 0 -97 -100 -157 -182 -109
-62 36 -73 135 -20 185 38 36 79 44 128 27z m56 -482 c4 -7 18 -29 31 -49 12
-21 37 -60 54 -88 28 -43 30 -51 15 -52 -9 0 -34 -1 -55 -2 -20 -1 -37 2 -37
6 0 5 -4 6 -8 3 -7 -4 -133 -8 -202 -6 -8 1 -62 1 -120 1 -58 0 -112 0 -120 0
-8 0 -170 0 -360 0 -190 0 -352 0 -360 0 -36 0 -237 0 -258 -1 -23 0 -22 3 24
88 26 48 51 92 56 99 14 17 50 18 722 16 492 -1 611 -4 618 -15z m288 -487 c0
-5 6 -16 13 -23 7 -7 31 -43 54 -80 l42 -68 -1060 0 -1061 0 22 38 c12 20 36
61 52 90 l30 52 954 0 c580 0 954 -4 954 -9z"/>
</g>
</svg>
